<svg id="visual" viewBox="0 0 900 450" width="900" height="450" xmlns="http://www.w3.org/2000/svg" xmlns:xlink="http://www.w3.org/1999/xlink" version="1.1"><rect x="0" y="0" width="900" height="450" fill="#FFFFFF"></rect><defs><linearGradient id="grad1_0" x1="50%" y1="0%" x2="100%" y2="100%"><stop offset="10%" stop-color="#4673b6" stop-opacity="1"></stop><stop offset="90%" stop-color="#4673b6" stop-opacity="1"></stop></linearGradient></defs><defs><linearGradient id="grad1_1" x1="50%" y1="0%" x2="100%" y2="100%"><stop offset="10%" stop-color="#4673b6" stop-opacity="1"></stop><stop offset="90%" stop-color="#a7b6db" stop-opacity="1"></stop></linearGradient></defs><defs><linearGradient id="grad1_2" x1="50%" y1="0%" x2="100%" y2="100%"><stop offset="10%" stop-color="#ffffff" stop-opacity="1"></stop><stop offset="90%" stop-color="#a7b6db" stop-opacity="1"></stop></linearGradient></defs><defs><linearGradient id="grad2_0" x1="0%" y1="0%" x2="50%" y2="100%"><stop offset="10%" stop-color="#4673b6" stop-opacity="1"></stop><stop offset="90%" stop-color="#4673b6" stop-opacity="1"></stop></linearGradient></defs><defs><linearGradient id="grad2_1" x1="0%" y1="0%" x2="50%" y2="100%"><stop offset="10%" stop-color="#a7b6db" stop-opacity="1"></stop><stop offset="90%" stop-color="#4673b6" stop-opacity="1"></stop></linearGradient></defs><defs><linearGradient id="grad2_2" x1="0%" y1="0%" x2="50%" y2="100%"><stop offset="10%" stop-color="#a7b6db" stop-opacity="1"></stop><stop offset="90%" stop-color="#ffffff" stop-opacity="1"></stop></linearGradient></defs><g transform="translate(900, 0)"><path d="M0 202.5C-17.2 199.6 -34.3 196.7 -51.8 193.2C-69.2 189.7 -86.9 185.6 -101.2 175.4C-115.6 165.2 -126.5 148.8 -132.2 132.2C-138 115.6 -138.5 98.7 -149 86C-159.4 73.3 -179.7 64.6 -190.3 51C-200.9 37.3 -201.7 18.7 -202.5 0L0 0Z" fill="#d3daed"></path><path d="M0 135C-11.4 133.1 -22.9 131.1 -34.5 128.8C-46.1 126.5 -58 123.7 -67.5 116.9C-77 110.1 -84.3 99.2 -88.2 88.2C-92 77.1 -92.3 65.8 -99.3 57.3C-106.3 48.8 -119.8 43.1 -126.9 34C-133.9 24.9 -134.5 12.4 -135 0L0 0Z" fill="#7a94c8"></path><path d="M0 67.5C-5.7 66.5 -11.4 65.6 -17.3 64.4C-23.1 63.2 -29 61.9 -33.7 58.5C-38.5 55.1 -42.2 49.6 -44.1 44.1C-46 38.5 -46.2 32.9 -49.7 28.7C-53.1 24.4 -59.9 21.5 -63.4 17C-67 12.4 -67.2 6.2 -67.5 0L0 0Z" fill="#4673b6"></path></g><g transform="translate(0, 450)"><path d="M0 -202.5C17.9 -199.8 35.7 -197.2 50.5 -188.4C65.2 -179.5 76.8 -164.5 88 -152.4C99.2 -140.3 110 -131.2 122.3 -122.3C134.6 -113.4 148.4 -104.8 161.9 -93.5C175.5 -82.2 188.9 -68.4 195.6 -52.4C202.3 -36.4 202.4 -18.2 202.5 0L0 0Z" fill="#d3daed"></path><path d="M0 -135C11.9 -133.2 23.8 -131.5 33.6 -125.6C43.5 -119.7 51.2 -109.7 58.7 -101.6C66.1 -93.6 73.4 -87.5 81.6 -81.6C89.7 -75.6 98.9 -69.8 108 -62.3C117 -54.8 125.9 -45.6 130.4 -34.9C134.9 -24.3 134.9 -12.1 135 0L0 0Z" fill="#7a94c8"></path><path d="M0 -67.5C6 -66.6 11.9 -65.7 16.8 -62.8C21.7 -59.8 25.6 -54.8 29.3 -50.8C33.1 -46.8 36.7 -43.7 40.8 -40.8C44.9 -37.8 49.5 -34.9 54 -31.2C58.5 -27.4 63 -22.8 65.2 -17.5C67.4 -12.1 67.5 -6.1 67.5 0L0 0Z" fill="#4673b6"></path></g></svg>