<?xml version="1.0" standalone="no"?>
<svg viewBox="0 0 200 200" xmlns="http://www.w3.org/2000/svg">
  <path fill="#4673B6" d="M23.8,-33.3C31.6,-31.9,39.4,-26.7,50.2,-18.4C61,-10.1,74.9,1.3,78.4,14.8C82,28.3,75.3,43.8,63.1,50.7C51,57.5,33.4,55.6,18.5,57.3C3.7,59.1,-8.4,64.4,-20,63.3C-31.6,62.1,-42.8,54.4,-46.7,43.9C-50.6,33.3,-47.1,19.8,-48.5,7.2C-49.9,-5.3,-56.1,-16.9,-53.5,-25.2C-50.9,-33.5,-39.5,-38.6,-29.1,-38.7C-18.7,-38.9,-9.3,-34.2,-0.7,-33.1C8,-32,15.9,-34.6,23.8,-33.3Z" transform="translate(100 100)" />
</svg>
