<svg width="682" height="142" viewBox="0 0 682 142" fill="none" xmlns="http://www.w3.org/2000/svg">
<g clip-path="url(#clip0_3211_2702)" filter="url(#filter0_d_3211_2702)">
<path d="M237.398 7.37742C227.048 -8.56918 166.758 5.18159 102.755 38.1201C38.7367 71.0462 -4.76029 110.665 5.60369 126.624C14.4997 140.336 60.286 132.075 113.617 108.599C115.996 107.436 115.834 104.927 112.723 105.829C79.8539 116.612 52.4318 117.278 45.3413 105.829C35.9031 90.6399 65.7764 59.8707 112.046 37.127C158.317 14.3576 203.474 8.21402 212.912 23.4018C217.214 30.3564 213.28 40.5777 203.312 51.8063L203.18 51.9761C199.48 56.0406 202.167 57.2689 204.81 55.296C230.323 35.1664 243.623 16.9727 237.398 7.37742Z" fill="#DE1E23"/>
<path d="M141.407 112.416C135.711 111.044 131.042 109.188 127.475 106.848L133.934 93.8556C137.751 95.9992 141.803 97.6459 146.075 98.7831C150.362 99.9214 154.647 100.495 158.964 100.495C163.352 100.495 166.729 99.946 169.078 98.8884C171.397 97.8033 172.572 96.2866 172.572 94.3393C172.572 92.575 171.515 91.1371 169.401 89.9732C167.273 88.8492 163.279 87.7252 157.422 86.6268C150.038 85.3074 144.298 83.6997 140.203 81.778C136.092 79.8563 133.245 77.595 131.571 74.9941C129.927 72.38 129.119 69.2299 129.119 65.5041C129.119 61.2699 130.47 57.4531 133.186 54.0279C135.902 50.6038 139.689 47.9375 144.592 46.0157C149.495 44.094 155.074 43.1398 161.386 43.1398C167.022 43.1398 172.484 43.8322 177.783 45.2313C183.097 46.6304 187.237 48.4734 190.246 50.7612L183.876 63.7532C180.541 61.6491 176.882 59.9846 173.012 58.8113C169.209 57.675 165.408 57.1002 161.605 57.1002C157.877 57.1002 154.868 57.7405 152.607 59.0086C150.332 60.2759 149.201 62.0012 149.201 64.1449C149.201 65.3211 149.598 66.2886 150.405 67.073C151.213 67.8442 152.724 68.6286 154.897 69.3732C157.099 70.1178 160.388 70.9155 164.777 71.7654C171.882 73.1379 177.46 74.7845 181.526 76.6929C185.578 78.6147 188.455 80.8759 190.129 83.4379C191.816 86.0131 192.669 89.0845 192.669 92.6794C192.669 99.45 189.688 104.796 183.773 108.653C177.842 112.534 169.503 114.469 158.743 114.469C152.888 114.464 147.06 113.774 141.407 112.416ZM261.81 63.9495V113.58H242.257V106.848C240.672 109.188 238.323 111.031 235.255 112.364C232.172 113.698 228.795 114.377 225.155 114.377C220.384 114.377 216.156 113.332 212.412 111.24C208.699 109.149 205.778 106.182 203.677 102.299C201.608 98.4436 200.552 93.9466 200.552 88.8758C200.552 83.7253 201.623 79.1629 203.752 75.1905C205.865 71.2038 208.787 68.1183 212.516 65.8968C216.259 63.6868 220.457 62.577 225.155 62.577C228.795 62.577 232.157 63.2694 235.181 64.6808C238.234 66.0799 240.582 67.9627 242.257 70.3018V63.9495H261.81ZM239.408 97.9598C241.317 95.8029 242.257 92.7183 242.257 88.6795C242.257 84.5629 241.317 81.4251 239.408 79.2416C237.515 77.06 234.799 75.9616 231.291 75.9616C227.855 75.9616 225.155 77.0989 223.174 79.3336C221.191 81.5816 220.208 84.7583 220.208 88.8758C220.208 92.8226 221.147 95.8816 223.055 98.012C224.964 100.117 227.708 101.175 231.29 101.175C234.799 101.175 237.515 100.103 239.408 97.9598ZM274.802 63.9495V62.577C274.802 55.8576 276.783 50.6294 280.673 46.8523C284.594 43.0744 290.289 41.1659 297.746 41.1659C302.003 41.1659 305.453 41.6364 308.066 42.5384V56.1327C305.937 55.6755 304.175 55.4403 302.811 55.4403C300.462 55.4403 298.524 56.0416 296.983 57.2567C295.456 58.4594 294.679 60.2891 294.679 62.7733V63.9495H305.541V76.9424H294.679V113.58H274.801L274.802 63.9495ZM372.819 63.9495V113.58H353.28V106.848C351.68 109.188 349.346 111.031 346.248 112.364C343.195 113.698 339.818 114.377 336.163 114.377C331.407 114.377 327.179 113.332 323.435 111.24C319.707 109.149 316.801 106.182 314.701 102.299C312.617 98.4436 311.59 93.9466 311.59 88.8758C311.59 83.7253 312.646 79.1629 314.76 75.1905C316.873 71.2038 319.809 68.1183 323.538 65.8968C327.282 63.6868 331.48 62.577 336.163 62.577C339.818 62.577 343.18 63.2694 346.204 64.6808C349.243 66.0799 351.605 67.9627 353.28 70.3018V63.9495H372.819ZM350.431 97.9598C352.34 95.8029 353.28 92.7183 353.28 88.6795C353.28 84.5629 352.34 81.4251 350.431 79.2416C348.538 77.06 345.837 75.9616 342.314 75.9616C338.879 75.9616 336.163 77.0989 334.197 79.3336C332.214 81.5816 331.231 84.7583 331.231 88.8758C331.231 92.8226 332.186 95.8816 334.093 98.012C335.987 100.117 338.732 101.175 342.314 101.175C345.837 101.175 348.538 100.103 350.431 97.9598ZM425.989 63.8442V79.9739C422.847 78.6668 419.838 78.0133 416.917 78.0133C408.608 78.0133 404.453 81.5684 404.453 88.6662V113.58H384.665V78.2096C384.665 72.877 384.372 68.1183 383.799 63.9362H402.383L403.587 72.2491C404.894 69.1901 406.993 66.8378 409.929 65.2035C412.836 63.5957 416.109 62.7724 419.75 62.7724C422.451 62.7724 424.521 63.1385 425.989 63.8442ZM431.86 113.58H451.722V63.9362H431.86V113.58ZM469.073 107.528C463.745 102.965 461.073 96.7571 461.073 88.8758C461.073 83.6599 462.35 79.0586 464.949 75.0985C467.562 71.1241 471.188 68.0405 475.886 65.857C480.554 63.6754 485.984 62.5893 492.12 62.5893C496.202 62.5893 500.239 63.112 504.203 64.1847C508.137 65.2689 511.278 66.7201 513.627 68.5499L508.578 80.745C506.61 79.3204 504.291 78.184 501.678 77.3341C499.036 76.4843 496.51 76.066 494.088 76.066C489.993 76.066 486.852 77.1112 484.65 79.1895C482.462 81.2686 481.361 84.3788 481.361 88.4708C481.361 92.6538 482.462 95.7905 484.649 97.9209C486.852 100.025 490.037 101.084 494.206 101.084C496.627 101.084 499.123 100.666 501.722 99.8038C504.321 98.9662 506.61 97.8157 508.578 96.391L513.627 108.404C511.22 110.299 508.005 111.763 504.041 112.809C500.033 113.854 495.776 114.365 491.24 114.365C481.801 114.365 474.418 112.09 469.073 107.528ZM531.962 111.239C527.353 109.162 523.8 106.155 521.304 102.247C518.808 98.3392 517.576 93.7512 517.576 88.4708C517.576 83.1894 518.808 78.6014 521.304 74.6935C523.8 70.7855 527.353 67.792 531.962 65.7138C536.572 63.6223 541.989 62.577 548.213 62.577C554.349 62.577 559.707 63.6355 564.272 65.7659C568.853 67.8707 572.375 70.8766 574.856 74.7456C577.352 78.6156 578.585 83.1894 578.585 88.4708C578.585 93.7512 577.352 98.3392 574.856 102.208C572.375 106.077 568.853 109.083 564.272 111.188C559.707 113.305 554.349 114.377 548.213 114.377C541.989 114.377 536.572 113.331 531.962 111.239ZM558.973 88.4708C558.973 84.1702 558.064 81.0059 556.257 78.9542C554.481 76.9026 551.78 75.8829 548.213 75.8829C544.542 75.8829 541.798 76.9026 539.963 78.9542C538.142 81.0068 537.217 84.1702 537.217 88.4708C537.217 92.8359 538.142 96.0514 539.963 98.104C541.798 100.156 544.543 101.189 548.213 101.189C555.376 101.189 558.973 96.9402 558.973 88.4708ZM673.27 67.8574C676.382 71.3736 677.923 76.7451 677.923 83.9738V113.58H658.076V84.4699C658.076 81.5295 657.575 79.4124 656.578 78.1176C655.595 76.8106 653.922 76.157 651.588 76.157C648.799 76.157 646.655 77.0847 645.114 78.9021C643.573 80.7327 642.809 83.2814 642.809 86.6136V113.58H622.947V84.4699C622.947 81.5295 622.418 79.4124 621.406 78.1176C620.378 76.8106 618.735 76.157 616.474 76.157C613.699 76.157 611.542 77.0847 610.058 78.9021C608.545 80.7327 607.798 83.2814 607.798 86.6136V113.58H587.907V78.2096C587.907 72.877 587.643 68.1059 587.055 63.9495H605.714L606.697 70.8899C608.385 68.2103 610.748 66.1577 613.773 64.7207C616.811 63.3083 620.305 62.5893 624.254 62.5893C632.239 62.5893 637.656 65.5829 640.49 71.569C642.486 68.8249 645.113 66.6547 648.344 65.0213C651.602 63.387 655.14 62.5893 658.942 62.5893C665.372 62.5893 670.142 64.3412 673.27 67.8574ZM431.86 55.5313H451.722V39.6104H431.86V55.5313Z" fill="#3AA335"/>
</g>
<defs>
<filter id="filter0_d_3211_2702" x="0" y="0" width="682" height="142" filterUnits="userSpaceOnUse" color-interpolation-filters="sRGB">
<feFlood flood-opacity="0" result="BackgroundImageFix"/>
<feColorMatrix in="SourceAlpha" type="matrix" values="0 0 0 0 0 0 0 0 0 0 0 0 0 0 0 0 0 0 127 0" result="hardAlpha"/>
<feOffset dy="4"/>
<feGaussianBlur stdDeviation="2"/>
<feComposite in2="hardAlpha" operator="out"/>
<feColorMatrix type="matrix" values="0 0 0 0 0 0 0 0 0 0 0 0 0 0 0 0 0 0 0.25 0"/>
<feBlend mode="normal" in2="BackgroundImageFix" result="effect1_dropShadow_3211_2702"/>
<feBlend mode="normal" in="SourceGraphic" in2="effect1_dropShadow_3211_2702" result="shape"/>
</filter>
<clipPath id="clip0_3211_2702">
<rect width="674" height="134" fill="white" transform="translate(4)"/>
</clipPath>
</defs>
</svg>
