<?xml version="1.0" encoding="utf-8"?>
<!-- Generator: Adobe Illustrator 23.0.2, SVG Export Plug-In . SVG Version: 6.00 Build 0)  -->
<svg version="1.1" id="Layer_1" xmlns="http://www.w3.org/2000/svg" xmlns:xlink="http://www.w3.org/1999/xlink" x="0px" y="0px"
	 viewBox="0 0 187.5 86.6" style="enable-background:new 0 0 187.5 86.6;" xml:space="preserve">
<style type="text/css">
	.st0{fill:#A02167;}
</style>
<g id="taxiye-log" transform="translate(-45.62 -115.756)">
	<path id="Path_3" class="st0" d="M111.8,165.9c-1.1,1.6-2.7,2.9-4.6,3.6c-6.5,2.4-12.5-1-13.5-7.9c-0.7-3.7,0.3-7.6,2.9-10.4
		c2.1-2.1,4.8-3.6,7.7-4.1c1.9-0.4,3.9-0.7,5.9-0.6c0.6,0,0.8-0.2,0.7-0.8c-0.2-2.7-2-4.2-5-4.2c-3,0-6,0.9-8.5,2.6l-0.6-2
		c-0.2,0.8-0.3,1.4-0.5,2c-0.9,3.2-2.7,6-4.4,8.9c-2.3,3.9-5.2,7.5-7.8,11.3c-3.7,5.2-6.8,10.8-9.2,16.7c-1.4,3.9-2.5,7.9-3.4,11.9
		c0,0.2,0,0.4-0.3,0.6c-0.2-0.4-0.3-0.9-0.4-1.3c-2.1-10.6-6.7-20-12.9-28.7c-3.1-4.3-6.2-8.6-9-13.2c-1.8-2.8-3-6.1-3.4-9.4
		c-0.5-4.6,0.6-9.3,3.1-13.2c3.9-6.2,10.2-10.4,17.5-11.4c6.6-1.3,13.5-0.1,19.3,3.3c5.5,3,9.5,8.3,11,14.4c0.2,0.8,0.3,1.6,0.5,2.5
		c1.5-0.7,3-1.2,4.6-1.6c3.4-0.9,6.9-0.9,10.2,0c4.5,1.3,6.9,4.5,7.9,8.9c0.4,1.7,0.6,3.4,0.6,5.2c0,5.4,0,10.8,0.1,16.2
		c0,1.2,0.1,2.5,0.3,3.7c0.1,0.5-0.1,0.6-0.6,0.6c-2.4,0-4.7,0-7.1,0c-0.6,0-0.7-0.3-0.8-0.7C112.1,167.8,112,167,111.8,165.9z
		 M74.6,152.2L74.6,152.2c0-5.4,0-10.8,0-16.2c0-0.9,0.3-1.2,1.2-1.2c3,0,6,0,9,0c0.5,0,0.7-0.1,0.7-0.7c0-1.6,0-3.2,0-4.8
		c0-0.6-0.2-0.8-0.8-0.8c-9.1-0.1-18.3-0.1-27.4,0c-0.5,0-0.7,0.1-0.6,0.6c0,1.7,0,3.3,0,5c0,0.6,0.2,0.7,0.7,0.7c3,0,5.9,0,8.9,0
		c0.9,0,1.2,0.3,1.2,1.1c0,2.4,0,4.7,0,7.1c0,8.5,0,16.9,0,25.4c0,0.6,0.1,0.8,0.7,0.8c1.8,0,3.6-0.1,5.4,0c0.8,0,1-0.2,1-1
		C74.6,162.9,74.6,157.5,74.6,152.2z M111.2,155.6L111.2,155.6c0.1-0.7,0.1-1.3,0.1-2c0-0.3-0.1-0.5-0.4-0.5c-1.9,0-3.7,0.3-5.4,1
		c-1.8,0.8-2.9,2.7-2.7,4.7c0.1,3.1,2.7,4.6,5.5,3.3c1.7-0.7,2.9-2.4,3-4.2C111.3,157.2,111.3,156.4,111.2,155.6L111.2,155.6z"/>
	<path id="Path_4" class="st0" d="M188.7,158.2c0.3-1.3,0.6-2.7,0.8-4c1.3-6.2,2.7-12.4,4-18.7c0.1-0.4,0.3-0.6,0.7-0.6
		c2.9,0,5.8,0,8.7,0c0.4,0,0.6,0,0.5,0.5c-3.5,10.9-6.4,22-10.4,32.7c-1.2,3.3-2.7,6.5-4.7,9.4c-2.4,3.7-6.1,6.3-10.5,7.3
		c-0.6,0.1-0.7,0-0.8-0.5c-0.5-2.6-1.1-5.2-1.7-7.8c-0.1-0.5,0-0.7,0.5-0.8c3.2-1,5.9-3.3,7.4-6.3c0.4-0.8,0.4-1.7,0-2.5
		c-3.1-8.9-6.2-17.8-9.3-26.8c-0.5-1.5-1-3.1-1.6-4.6c-0.2-0.5-0.1-0.6,0.4-0.6c3,0,6.1,0,9.1,0c0.3-0.1,0.6,0.2,0.7,0.5
		c0,0,0,0,0,0.1c1.9,7.4,4,14.7,5.6,22.2c0,0.2,0.1,0.4,0.2,0.5L188.7,158.2z"/>
	<path id="Path_5" class="st0" d="M223.2,155.6c-3,0-5.9,0-8.9,0c-0.6,0-0.7,0.2-0.6,0.7c0.5,3,3,5.3,6,5.6c3.3,0.5,6.6,0.2,9.8-1
		c0.7-0.2,0.8,0,0.9,0.6c0.3,2,0.6,4,1,5.9c0.1,0.3,0,0.7-0.3,0.8c0,0-0.1,0-0.1,0c-2.9,1.2-6.1,1.9-9.2,1.9
		c-2.3,0.1-4.6-0.1-6.7-0.8c-4-1.2-7.2-4.3-8.6-8.2c-2.6-6.5-2.1-13.9,1.4-20c3.4-6.2,11-8.8,17.5-5.8c2.9,1.4,5.1,3.8,6.1,6.8
		c1.6,4.1,2.1,8.6,1.5,12.9c-0.1,0.5-0.3,0.5-0.7,0.5C229.2,155.6,226.2,155.6,223.2,155.6z M219.1,148.3c1.6,0,3.2,0,4.8,0
		c0.3,0,0.7,0.1,0.6-0.5c-0.1-1.4-0.4-2.8-1.1-4.1c-1.3-2.3-4.1-3.1-6.4-1.9c-0.4,0.2-0.8,0.5-1.1,0.8c-1.3,1.4-2.1,3.2-2.3,5.1
		c-0.1,0.5,0.2,0.5,0.6,0.5C215.9,148.3,217.5,148.3,219.1,148.3L219.1,148.3z"/>
	<path id="Path_6" class="st0" d="M140.1,145.9c1.4-3.5,3-6.7,4.4-9.9c0.2-0.7,0.9-1.1,1.6-1c2.7,0.1,5.3,0,8,0h0.8
		c0.1,0.3-0.1,0.5-0.3,0.7c-3,5-6,10.1-9,15.1c-0.3,0.4-0.3,0.8,0,1.2c3.1,5.5,6.1,11.1,9.1,16.7c0.1,0.2,0.2,0.4,0.3,0.6
		c-0.2,0.2-0.4,0.1-0.5,0.1c-3.1,0-6.2,0-9.3,0c-0.4,0-0.8-0.2-0.9-0.6c-1.6-3.5-3.4-6.8-4.8-10.4c-0.1-0.1-0.1-0.3-0.2-0.4
		c-0.3,0-0.3,0.3-0.4,0.4c-1.5,3.4-3.1,6.9-4.6,10.3c-0.1,0.3-0.2,0.6-0.6,0.6c-3.2,0-6.4,0-9.6,0c-0.1-0.4,0.2-0.6,0.3-0.8
		c3.1-5.3,6.1-10.7,9.2-16c0.3-0.4,0.3-1,0-1.4c-3-5.2-6-10.4-9-15.5c-0.4-0.7-0.4-0.7,0.4-0.7c2.9,0,5.8,0,8.7,0
		c0.5-0.1,1,0.2,1.2,0.7c1.6,3.2,3.2,6.4,4.7,9.6C139.8,145.4,139.9,145.6,140.1,145.9z"/>
	<path id="Path_7" class="st0" d="M159.1,152.2c0-5.5,0-10.9,0-16.4c0-0.8,0.2-0.9,0.9-0.9c2.5,0,5.1,0,7.6,0c0.5,0,0.7,0.1,0.7,0.7
		c0,11,0,22.1,0,33.1c0,0.6-0.2,0.7-0.7,0.7c-2.6,0-5.2,0-7.9,0c-0.6,0-0.7-0.2-0.7-0.8C159.1,163.2,159.1,157.7,159.1,152.2z"/>
	<path id="Path_11" class="st0" d="M71.8,196.5c2.4,0,4.8,0.3,7.1,1c0.6,0.2,1.2,0.5,1.8,0.9c0.8,0.7,0.8,1.4,0,2.1
		c-0.5,0.4-1.1,0.7-1.8,0.9c-3.1,0.9-6.4,1.2-9.6,0.9c-1.8-0.1-3.6-0.4-5.3-1c-0.5-0.2-1-0.4-1.5-0.7c-1.2-0.8-1.2-1.7,0-2.5
		c0.9-0.5,1.9-0.9,2.9-1.1C67.5,196.6,69.6,196.4,71.8,196.5z"/>
	<path id="Path_12" class="st0" d="M158.9,125.4c0-2.9,1.6-5,4-5.3c3.4-0.5,6,2,5.8,5.7c-0.2,3.4-2.8,5.6-6,4.9
		c-2.1-0.5-3.6-2.3-3.7-4.5C158.9,125.9,158.9,125.6,158.9,125.4z"/>
	<g id="Group_1032" transform="translate(87.671 173.918)">
		<path id="Path_14" class="st0" d="M59.8,0.1c0.8-0.3,1-0.2,1.1,0.7c-0.6,1.5-1.4,2.9-2,4.3c-1.1,2.3-2,4.7-2.6,7.1
			c-0.2,0.6-0.2,1.2-0.2,1.8c0.1,0.4,0,0.9-0.5,1c-0.6,0-0.6-0.5-0.6-1c0-1,0.2-1.9,0.5-2.8c0.8-2.4,1.7-4.8,2.8-7.1
			c0.1-0.2,0.2-0.4,0.3-0.6c0.1-0.1,0.1-0.2,0-0.3c-0.1-0.1-0.2,0-0.2,0.1c-1.5,2.1-2.8,4.2-3.9,6.4c-0.3,0.6-0.7,1.1-1,1.7
			c-0.2,0.4-0.7,0.6-1.1,0.5c-0.5-0.2-0.4-0.7-0.4-1.1c0.2-1.6,0.6-3.2,1.2-4.7c0.3-0.8,0.7-1.6,1.1-2.6c-0.4,0.3-0.7,0.6-0.9,1
			c-1.8,3-3.3,6.1-4.5,9.4c-0.1,0.3-0.3,0.7-0.4,1c-0.1,0.3-0.4,0.5-0.7,0.4c-0.4-0.2-0.2-0.5-0.1-0.8c0.5-1.5,1.1-3.1,1.8-4.6
			c1.5-3.1,3.2-6,5.2-8.7c0.2-0.3,0.5-0.6,0.8-0.9c0.2-0.3,0.5-0.3,0.8-0.2c0.3,0.2,0.4,0.5,0.3,0.8c-0.1,0.4-0.3,0.7-0.5,1.1
			c-1.1,2.2-2,4.5-2.6,6.9c-0.1,0.3-0.1,0.6-0.1,0.9c0.3-0.1,0.3-0.4,0.4-0.6c1.6-2.9,3.4-5.7,5.3-8.4C59.2,0.8,59.5,0.5,59.8,0.1z"
			/>
		<path id="Path_15" class="st0" d="M1.9,10.1c-0.2,0.1-0.4,0.2-0.6,0.2c-0.2,0.1-0.5,0.3-0.7-0.1C0.5,10,0.5,9.7,0.8,9.5
			c0,0,0,0,0,0c0.3-0.2,0.7-0.4,1.1-0.5c0.8-0.2,1.5-0.8,1.9-1.6c1.4-2.2,3-4.3,4.7-6.3c0.2-0.2,0.4-0.4,0.6-0.6
			c0.2-0.2,0.5-0.4,0.8-0.2c0.3,0.2,0.4,0.5,0.3,0.8C9.9,2,9.7,2.9,9.4,3.7C9.2,4.5,9,5.4,8.8,6.2C8.7,6.5,8.7,6.8,9.2,6.8
			c0.4,0,0.6,0,0.6,0.5c0,0.4-0.2,0.7-0.6,0.6c-0.8-0.1-0.9,0.4-1,1c-0.4,1.8-0.6,3.7-0.7,5.6c0,0.3,0,0.6-0.4,0.6
			c-0.4,0-0.5-0.3-0.6-0.6c-0.1-0.8-0.1-1.7,0.1-2.5C6.8,10.9,7,9.8,7.2,8.7c0.1-0.5-0.1-0.5-0.4-0.4C5.9,8.5,5,8.8,4.2,9.1
			C3.9,9.3,3.6,9.5,3.5,9.8c-0.8,1.5-1.6,3-2.4,4.5c-0.1,0.2-0.2,0.3-0.3,0.5C0.7,15,0.5,15.2,0.2,15C0,14.9-0.1,14.6,0,14.4
			c0,0,0,0,0,0c0.2-0.6,0.5-1.1,0.7-1.7c0.4-0.8,0.9-1.6,1.3-2.5l0-0.2L1.9,10.1z M4.7,7.8c1-0.3,1.8-0.5,2.6-0.8
			c0.2,0,0.3-0.2,0.3-0.4C8,5.3,8.4,3.9,8.8,2.3C7.2,4,5.8,5.8,4.7,7.8L4.7,7.8z"/>
		<path id="Path_16" class="st0" d="M33.6,12.7c0.7-0.5,1.3-1.2,1.7-2c0.1-0.2,0.2-0.7,0.6-0.5c0.3,0.1,0.1,0.5,0,0.8
			c-0.6,1.2-1.4,2.2-2.5,2.9c-0.4,0.3-0.7,0.7-0.9,1.2c-0.4,1.1-0.9,2.2-1.4,3.2c-0.3,0.6-0.7,1.2-1.3,1.7c-0.4,0.5-1.2,0.6-1.7,0.3
			c-0.5-0.3-0.8-1-0.6-1.6c0.1-0.9,0.6-1.7,1.2-2.4c0.5-0.6,1.1-1.1,1.7-1.5c1.2-0.6,2-1.7,2.2-3c0-0.1,0.1-0.2,0-0.2
			c0,0-0.1,0.1-0.1,0.1c-0.5,0.6-1,1.1-1.5,1.6c-0.3,0.2-0.7,0.4-1.1,0.2c-0.4-0.2-0.4-0.7-0.3-1c0.4-1.7,1.2-3.2,2.4-4.4
			c0.2-0.2,0.4-0.3,0.6-0.1c0.2,0.2,0.3,0.5,0.1,0.7c0,0,0,0,0,0c-0.3,0.4-0.7,0.9-1,1.3c-0.4,0.5-0.7,1.1-1,1.7
			c-0.1,0.2-0.2,0.4,0,0.5s0.4,0,0.5-0.2c0.8-0.7,1.5-1.6,2.1-2.5c0.3-0.5,0.7-1,1-1.5c0.2-0.3,0.4-0.6,0.8-0.4
			c0.3,0.2,0.2,0.6,0.1,0.9c-0.4,0.9-0.9,1.8-1.3,2.8c-0.2,0.4-0.3,0.8-0.5,1.2C33.5,12.7,33.5,12.7,33.6,12.7
			C33.5,12.8,33.6,12.7,33.6,12.7z M31.2,15.5c-0.9,0.5-1.7,1.2-2.3,2.1c-0.3,0.4-0.5,0.8-0.5,1.3c0,0.6,0.4,0.7,0.8,0.4
			c0.2-0.1,0.4-0.3,0.5-0.5C30.4,17.8,30.9,16.7,31.2,15.5L31.2,15.5z"/>
		<path id="Path_17" class="st0" d="M82.1,12.9c0.9-0.7,1.6-1.6,2.1-2.6c0.1-0.2,0.2-0.6,0.5-0.5c0.3,0.1,0.1,0.5,0,0.7
			c-0.6,1.4-1.6,2.6-2.9,3.6c-0.4,0.3-0.7,0.7-0.9,1.2c-0.5,1.3-1.1,2.6-1.9,3.7c-0.3,0.4-0.6,0.7-0.9,0.9c-0.4,0.4-1.1,0.3-1.5-0.1
			c-0.2-0.2-0.3-0.5-0.2-0.8c0-0.8,0.3-1.6,0.8-2.2c0.8-0.9,1.8-1.7,2.9-2.3c0.6-0.4,0.7-0.5,0.9-1.5c-0.2,0.2-0.4,0.3-0.6,0.4
			c-0.7,0.5-1.3,0.3-1.4-0.6c0-0.2,0-0.3,0-0.5c0.4-1.8,1.3-3.4,2.6-4.6c0.2-0.2,0.5-0.3,0.7-0.5c0.8-0.4,1.4,0,1.3,1
			c0,1.1-0.3,2.2-0.9,3.1C82.4,11.7,82.2,12.3,82.1,12.9z M79.9,12.1c0,0.3,0,0.5,0.2,0.6c0.2,0.1,0.4,0,0.5-0.1
			c0.2-0.1,0.3-0.3,0.5-0.5c0.8-0.9,1-2.2,1.7-3.2c0.1-0.2,0.1-0.4,0-0.5c-0.2-0.2-0.4,0-0.6,0.1C81,9.4,80.2,10.7,79.9,12.1
			L79.9,12.1z M79.9,15.5c-1.1,0.6-2,1.5-2.5,2.7c-0.1,0.3-0.2,0.6,0.1,0.8c0.3,0.2,0.5-0.1,0.7-0.2C79,17.8,79.5,16.7,79.9,15.5
			L79.9,15.5z"/>
		<path id="Path_18" class="st0" d="M11.2,13c0.8-0.3,1.7-0.5,2.5-0.7c0.2,0,0.5,0,0.7,0c0.3,0,0.5,0.2,0.5,0.4c0,0,0,0.1,0,0.1
			c0,0.3-0.2,0.6-0.5,0.6c-1.1,0-2.2,0.3-3.2,0.9c-0.4,0.2-0.8,0.5-1.2,0.1c-0.4-0.4-0.5-0.9-0.2-1.4c0.6-1.8,1.4-3.5,2.3-5.2
			c1.2-2.2,2.4-4.3,3.8-6.3c0.1-0.2,0.3-0.4,0.4-0.5c0.1-0.2,0.4-0.3,0.6-0.1c0,0,0,0,0,0c0.2,0.1,0.2,0.4,0.1,0.6
			c-0.2,0.4-0.4,0.7-0.6,1c-2.1,2.9-3.8,6-5.2,9.3c-0.1,0.4-0.2,0.7-0.4,1.1l0,0.2L11.2,13z"/>
		<path id="Path_19" class="st0" d="M19.2,11.9c-0.6,0.5-1,1.1-1.5,1.6c-0.3,0.3-0.6,0.6-1,0.4c-0.3-0.2-0.5-0.6-0.4-1
			c0-0.5,0.2-1,0.4-1.5c0.4-1,1-2,1.7-2.9c0.2-0.3,0.5-0.8,0.9-0.4c0.4,0.3,0,0.7-0.2,1c-0.7,0.8-1.2,1.7-1.6,2.7
			c-0.1,0.2-0.2,0.5,0,0.6s0.4-0.1,0.6-0.2c0.8-0.9,1.5-1.9,2.2-2.9c0.3-0.4,0.5-1,1.1-0.7c0.5,0.3,0,0.8-0.2,1.2
			c-0.4,0.8-0.7,1.7-1,2.5c0,0.2-0.1,0.5,0.1,0.6c0.2,0.1,0.4-0.1,0.5-0.3c0.9-1.1,1.5-2.5,1.8-4c0-0.3,0.1-0.6,0.3-0.9
			c0.1-0.2,0.3-0.3,0.5-0.2c0.2,0.1,0.3,0.3,0.3,0.5c0,0.1,0,0.3,0,0.4c-0.4,1.9-1.3,3.7-2.6,5.2c-0.3,0.4-0.7,0.7-1.3,0.5
			c-0.6-0.2-0.4-0.8-0.4-1.3C19.1,12.5,19.2,12.2,19.2,11.9z"/>
		<path id="Path_20" class="st0" d="M26.9,12.7c-0.3,0.4-0.6,0.8-0.9,1.2c-0.3,0.4-0.9,0.5-1.2,0.1c-0.2-0.1-0.3-0.4-0.3-0.6
			c-0.1-0.5-0.1-0.9,0-1.4c0.3-1.5,1-2.9,2-4.1c0.3-0.3,0.7-0.6,1.1-0.7c0.9-0.3,1.3,0.2,1.3,1.1c-0.1,1-0.4,1.9-0.8,2.8
			c-0.2,0.5-0.3,1-0.3,1.6c0,0.3,0.2,0.6,0.5,0.8c0.3,0.2,0.5,0.5,0.2,0.8s-0.6,0.2-0.9,0.1C27,14,26.9,13.4,26.9,12.7z M25.2,12.1
			c0,0.3-0.1,0.7,0.3,0.8c0.3,0.1,0.4-0.1,0.6-0.3c0.1-0.1,0.2-0.2,0.3-0.4c0.7-1,1-2.3,1.6-3.3c0.2-0.3-0.1-0.5-0.4-0.5
			c-0.3,0-0.5,0.1-0.7,0.3C26,9.7,25.4,10.9,25.2,12.1z"/>
		<path id="Path_21" class="st0" d="M75.9,10.7c-0.7,0.7-1.3,1.6-1.7,2.5c-0.1,0.2-0.2,0.4-0.4,0.6c-0.1,0.2-0.3,0.2-0.4,0.2
			c-0.2-0.1-0.3-0.2-0.3-0.4c0-0.2,0.1-0.5,0.1-0.7c0.5-1.5,1.2-2.9,1.9-4.2c0.2-0.3,0.3-0.8,0.8-0.6c0.4,0.2,0.2,0.6,0,1
			c-0.1,0.1-0.1,0.2,0,0.3c0,0,0,0,0,0c0.4-0.4,0.9-0.8,1.3-1.2c0.3-0.2,0.6-0.5,0.9-0.2c0.3,0.3,0.1,0.7-0.1,1
			c-0.7,0.9-1.2,1.9-1.6,3c-0.3,0.8-0.3,1.6,0.1,2.4c0.1,0.2,0.2,0.5-0.1,0.7c-0.4,0.2-0.6,0-0.8-0.3c-0.4-0.9-0.4-2-0.1-2.9
			c0.1-0.4,0.2-0.7,0.4-1c0-0.1,0.1-0.2,0-0.2C76,10.6,76,10.7,75.9,10.7z M75.9,9.6c0.1,0,0.1-0.1,0.1-0.2c0,0-0.1-0.1-0.1-0.1
			c-0.1,0-0.1,0.1-0.2,0.1L75.9,9.6z"/>
		<path id="Path_22" class="st0" d="M36.7,12.3c0-0.5,0.1-0.9,0.4-1.3c0.1-0.2,0.3-0.4,0.6-0.2s0.1,0.3,0,0.5
			c-0.2,0.5-0.2,1.1,0,1.6c0.2,0.4,0.6,0.7,1.1,0.5c0.4-0.2,0.6-0.7,0.4-1.1c-0.2-0.4-0.4-0.9-0.6-1.2C38,10.2,38,9.2,38.6,8.4
			c0.7-1,1.8-1.5,3-1.3c0.5,0.1,0.7,0.5,0.7,1c-0.1,1.1-0.9,2-2,2.2c-0.2,0-0.5,0.1-0.6-0.2c-0.1-0.2,0.1-0.5,0.3-0.6c0,0,0,0,0.1,0
			c0.4-0.1,0.8-0.2,1-0.5c0.2-0.2,0.4-0.4,0.2-0.7c-0.2-0.3-0.4-0.2-0.7-0.2c-1,0.1-1.7,1.1-1.6,2.1c0,0.2,0.1,0.4,0.2,0.5
			c0.2,0.4,0.5,0.9,0.7,1.3c0.4,0.9,0,1.9-0.8,2.4c0,0-0.1,0-0.2,0.1C37.7,14.8,36.7,13.9,36.7,12.3z"/>
		<path id="Path_23" class="st0" d="M68.3,10.2c0.5,0.2,0.7-0.2,1-0.4c0.2-0.1,0.4-0.4,0.6-0.2s0.1,0.5,0,0.7c-0.3,0.6-1,1-1.7,0.9
			c-0.3-0.1-0.6,0-0.7,0.3c0,0,0,0,0,0c-0.4,0.8-0.9,1.5-1.5,2.1c-0.3,0.3-0.6,0.5-1,0.3c-0.3-0.2-0.5-0.6-0.5-1
			c0-0.8,0.2-1.5,0.5-2.2c0.4-0.9,0.8-1.7,1.2-2.6c0.1-0.2,0.2-0.5,0.5-0.4s0.3,0.4,0.2,0.6c-0.2,0.8-0.6,1.6-0.9,2.4
			c-0.2,0.5-0.4,1-0.5,1.5c0,0.1,0,0.3,0.1,0.4c0.1,0.1,0.3,0,0.4-0.1c0.8-0.8,1.3-1.8,1.5-2.9c0-0.6,0.2-1.2,0.5-1.7
			c0.1-0.3,0.5-0.4,0.8-0.3C69,8,68.9,8.3,68.8,8.6C68.7,9.1,68.5,9.7,68.3,10.2z"/>
		<path id="Path_24" class="st0" d="M59.2,12.7c0.2-2,1.1-3.9,2.7-5.2c0.3-0.4,0.9-0.5,1.4-0.3c0.4,0.3,0.4,0.8,0.4,1.3
			c-0.3,1.7-1,3.3-2,4.7c-0.1,0.1-0.2,0.2-0.3,0.3c-0.3,0.5-1,0.7-1.5,0.5C59.2,13.8,59.2,13.3,59.2,12.7z M60.1,12.1
			c0,0.4,0,0.7,0.2,0.8c0.3,0.1,0.5-0.1,0.7-0.3c0.1-0.1,0.2-0.2,0.3-0.3c0.4-1.1,0.9-2.3,1.4-3.3c0.1-0.2,0.1-0.4-0.1-0.5
			c0,0,0,0,0,0c-0.2-0.1-0.4,0-0.5,0.1C61.1,9.5,60.4,10.7,60.1,12.1L60.1,12.1z"/>
		<path id="Path_25" class="st0" d="M69.9,13.8c0.3-1.6,0.9-3.2,1.7-4.6c0.3-0.4,0.5-0.9,0.8-1.3c0.1-0.2,0.3-0.2,0.4-0.2
			C73.1,7.8,73.1,8,73,8.2c-0.1,0.2-0.2,0.4-0.3,0.6c-0.9,1.5-1.5,3.2-2,4.8c0,0.1-0.1,0.2-0.1,0.3c-0.1,0.2-0.2,0.5-0.5,0.4
			C69.9,14.3,69.9,14,69.9,13.8z"/>
	</g>
	<path id="Path_26" class="st0" d="M168.7,190.5c-0.1,0.5-0.4,1-0.8,1.3c-0.2,0.1-0.4,0.2-0.5,0.1c-0.2-0.1-0.3-0.4-0.2-0.6
		c0.1-0.5,0.4-0.9,0.8-1.2c0.2-0.1,0.4-0.2,0.6-0.1C168.7,190.1,168.7,190.3,168.7,190.5z"/>
</g>
</svg>
