<?xml version="1.0" encoding="UTF-8" standalone="no"?>
<svg
   xmlns:dc="http://purl.org/dc/elements/1.1/"
   xmlns:cc="http://creativecommons.org/ns#"
   xmlns:rdf="http://www.w3.org/1999/02/22-rdf-syntax-ns#"
   xmlns:svg="http://www.w3.org/2000/svg"
   xmlns="http://www.w3.org/2000/svg"
   viewBox="0 0 1574.6667 744"
   height="744"
   width="1574.6667"
   xml:space="preserve"
   id="svg2"
   version="1.1"><metadata
     id="metadata8"><rdf:RDF><cc:Work
         rdf:about=""><dc:format>image/svg+xml</dc:format><dc:type
           rdf:resource="http://purl.org/dc/dcmitype/StillImage" /></cc:Work></rdf:RDF></metadata><defs
     id="defs6" /><g
     transform="matrix(1.3333333,0,0,-1.3333333,0,744)"
     id="g10"><g
       transform="scale(0.1)"
       id="g12"><path
         id="path14"
         style="fill:#0eaacb;fill-opacity:1;fill-rule:nonzero;stroke:none"
         d="M 4.61328,5576.63 H 11808.1 V 2.24609 H 4.61328 V 5576.63" /><path
         id="path16"
         style="fill:#feed00;fill-opacity:1;fill-rule:nonzero;stroke:none"
         d="m 6744.64,5181.83 c 160.71,0.3 321.41,0 482.11,0.21 54.8,2.09 108,-34.11 126.41,-85.72 85.09,-231.3 171.59,-462.19 255.89,-693.89 -231.5,-300.39 -461.6,-601.9 -692.9,-902.5 -30.7,-38.7 -81.8,-55.19 -129.9,-53.19 -159.89,0.59 -319.8,-0.41 -479.8,0.59 234.1,293.51 468.1,587 702.3,880.3 30.1,39.5 72.4,66.5 112,95.51 -34.8,32.09 -72.4,64.3 -90.61,109.29 -95.09,216.5 -190.38,432.9 -285.5,649.4 z m 874,0.1 c 162.61,-0.1 325.32,0.2 488.01,-0.1 55.1,0.21 105.7,-39.31 122.51,-91.2 84.69,-229.21 169.69,-458.3 254.09,-687.7 -230.6,-299.49 -460.1,-599.9 -690.5,-899.6 -29.2,-38.79 -78.3,-58.4 -126.1,-56.5 -162,0.5 -324.01,-0.6 -485.9,0.6 237.5,298.41 475.51,596.4 713.3,894.5 28.7,32.51 66,55.61 100.5,81.3 -33.91,30.81 -69.81,62.4 -88.71,105 -95.59,217.99 -191.7,435.7 -287.2,653.7 z M 6100.14,3165.14 c 26.61,36.9 70.51,60.79 116.52,59.39 165.99,-0.3 331.89,0.11 497.99,-0.19 -181.2,-226.7 -362.7,-453.2 -543.8,-680.01 -26.9,-32.4 -64.6,-52.8 -98.4,-77 30.19,-27.3 60.4,-56.89 77,-94.9 125.71,-294.4 252.1,-588.59 377.7,-882.98 -160.3,0 -320.6,0.09 -480.9,-0.11 -44.3,-1.81 -88.7,20.69 -113,57.6 -17.2,27.9 -26.7,59.49 -39.2,89.4 -107.5,274.19 -219.69,546.61 -325.09,821.59 178.9,234.3 353.9,471.71 531.18,707.21" /><path
         id="path18"
         style="fill:#ffffff;fill-opacity:1;fill-rule:nonzero;stroke:none"
         d="m 4344.95,3954.43 c 168.8,0 337.61,0 506.4,0 -99.8,-821.29 -200.39,-1642.6 -299.1,-2464.1 -168.89,-2.09 -337.89,-0.39 -506.79,-0.79 99.3,821.69 199.7,1643.3 299.49,2464.89 z m 872.41,0.2 c 168.69,-0.3 337.4,-0.3 506,0 -99.4,-821.49 -200.01,-1642.99 -299.2,-2464.49 -168.9,-1.21 -337.8,-1 -506.6,-0.11 99.99,821.51 199.5,1643.11 299.8,2464.6 z m -4029.2,-65.3 c 587.9,0.2 1175.81,0 1763.7,0.11 -19.41,-142.61 -37.19,-285.3 -56.8,-427.91 -202.7,0.9 -405.39,0.1 -608.1,0.51 -82.19,-657.41 -162.4,-1315.1 -243.89,-1972.59 -178.71,0 -357.41,-0.11 -536.11,0 80.2,657.49 160.5,1314.88 240.11,1972.38 -203.91,0.21 -407.7,-0.09 -611.5,0.21 17,142.5 34.99,284.9 52.59,427.29 z m 2053.5,-676.99 c 157.1,21 325,6.89 464.39,-74.2 121.6,-66.6 217.9,-188.7 231.71,-329.41 7.8,-114.4 -19.9,-235.99 -95.4,-324.89 -71.79,-83.7 -172.3,-136.11 -273.6,-175.3 -201.99,-76 -417.4,-105.4 -630.69,-129.1 4.19,-83.2 14.59,-172.11 67.19,-240.1 49.01,-64.6 133.2,-91 211.6,-92.5 89.8,-3.3 181.41,16 258.1,63.89 64.2,36.71 122.3,96.11 201.59,94.1 58.11,4.01 96.8,-44.8 129.81,-84.99 32.69,-37.8 64.8,-76.2 98.09,-113.5 -104.79,-102.7 -219.39,-199.2 -353.49,-261.3 -113.3,-53 -238.39,-76.6 -362.9,-81.3 -160.6,-10.6 -327.9,23.5 -461.4,116.3 -145,97.4 -238.89,259 -271.09,428.99 -59.31,340.3 47.39,711.61 293.5,957.2 132.29,131.7 307.18,220.9 492.59,246.11 z m -90.3,-408.01 c -91.9,-77.9 -143.9,-191.39 -175.99,-305.19 123.18,19.3 247.59,40.59 363.68,87.79 58.71,24.91 121.32,66 133,133.6 18.41,62 -21.89,136.1 -86.49,148.6 -82.49,17.5 -171.1,-10.09 -234.2,-64.8 z m 4209.79,409.8 c 191.2,30.31 399.99,-4.49 555.3,-125.29 145.7,-111.11 230.2,-288.91 248.9,-468.9 20.2,-196.81 -6.7,-400.21 -88.6,-581.1 -66.61,-151.71 -168.8,-288.7 -299.79,-390.8 -134.31,-104.81 -298.91,-173.01 -469.7,-183.61 -176.42,-13.19 -362.21,31.8 -499.91,146.31 -100.89,82.1 -169.59,198.8 -205.4,322.7 -36.2,128.69 -38.49,264.6 -24.2,396.69 21.8,197.71 99.1,389.21 221.71,545.91 137.4,176 339.89,303.5 561.69,338.09 z m 18.71,-379.89 c -63.31,-17.71 -115.91,-62.1 -155,-113.6 -52.41,-68.81 -84.11,-150.91 -106.11,-233.81 -34.61,-134.4 -43.7,-275.2 -30.3,-413.19 8.9,-66.31 23.8,-139.3 75.79,-186.21 45.62,-41.89 112.42,-48.59 171.51,-40.69 70.1,10.5 130.09,55.39 173.4,109.8 64.8,81.1 99.9,181.39 122.8,281.49 25.91,118.61 33,241.3 22.7,362.1 -7.4,69.31 -20.8,144.61 -72.1,195.81 -53.4,50.09 -134.7,54.89 -202.69,38.3 z m 1916.89,377.19 c 111.53,26.8 239.93,15.2 330.36,-60.9 87.3,-70.4 127.35,-181.99 143.97,-289.59 72.9,120.09 165.83,234.09 291.62,301.29 98.4,51.61 212.8,71.31 323,58.21 88.3,-10.41 174.2,-50.1 234.3,-116.6 66.8,-74.3 103.9,-171.4 118.4,-269.41 13.9,-94.49 8.9,-190.79 -2.3,-285.39 -41.8,-353.2 -83.5,-706.41 -125.6,-1059.59 -168.8,0 -337.5,0 -506.3,0 43.7,366.28 86.9,732.68 130.2,1099.09 4.7,59.09 12.3,121.99 -10.2,178.49 -17.8,44.31 -72,57.9 -114.9,49.5 -79.6,-12.09 -139.55,-73.2 -183.39,-136.49 -52.75,-79.5 -90.05,-169.31 -113.6,-261.6 -37.43,-309.51 -73.42,-619.3 -109.81,-928.99 -168.84,0 -337.66,0 -506.45,0 43.19,366.39 86.8,732.68 129.9,1098.98 5.8,59.8 12.39,123.4 -11.01,180.3 -17.5,41.81 -67.8,55.1 -109,48.51 -81.6,-11.01 -144.8,-73.01 -188.79,-138.5 -54.1,-81.9 -91.21,-174.7 -114.91,-269.7 -38.09,-306.31 -74.19,-613 -111.5,-919.5 -167.69,0.2 -335.49,-0.81 -503.19,0.49 69.4,568.91 138.8,1137.9 207.3,1706.9 94,-0.11 188,0.21 282.1,0 54.5,-0.7 115.7,-24.7 138.19,-78.09 22.22,-56.01 10.91,-117.51 13.81,-176.11 91.89,123.01 214.69,233.1 367.8,268.7" /></g></g></svg>