<svg id="visual" viewBox="0 0 540 960" width="540" height="960" xmlns="http://www.w3.org/2000/svg" xmlns:xlink="http://www.w3.org/1999/xlink" version="1.1"><rect x="0" y="0" width="540" height="960" fill="#FFFFFF"></rect><defs><linearGradient id="grad1_0" x1="0%" y1="0%" x2="100%" y2="100%"><stop offset="30%" stop-color="#4673b6" stop-opacity="1"></stop><stop offset="70%" stop-color="#4673b6" stop-opacity="1"></stop></linearGradient></defs><defs><linearGradient id="grad1_1" x1="0%" y1="0%" x2="100%" y2="100%"><stop offset="30%" stop-color="#4673b6" stop-opacity="1"></stop><stop offset="70%" stop-color="#a7b6db" stop-opacity="1"></stop></linearGradient></defs><defs><linearGradient id="grad1_2" x1="0%" y1="0%" x2="100%" y2="100%"><stop offset="30%" stop-color="#ffffff" stop-opacity="1"></stop><stop offset="70%" stop-color="#a7b6db" stop-opacity="1"></stop></linearGradient></defs><defs><linearGradient id="grad2_0" x1="0%" y1="0%" x2="100%" y2="100%"><stop offset="30%" stop-color="#4673b6" stop-opacity="1"></stop><stop offset="70%" stop-color="#4673b6" stop-opacity="1"></stop></linearGradient></defs><defs><linearGradient id="grad2_1" x1="0%" y1="0%" x2="100%" y2="100%"><stop offset="30%" stop-color="#a7b6db" stop-opacity="1"></stop><stop offset="70%" stop-color="#4673b6" stop-opacity="1"></stop></linearGradient></defs><defs><linearGradient id="grad2_2" x1="0%" y1="0%" x2="100%" y2="100%"><stop offset="30%" stop-color="#a7b6db" stop-opacity="1"></stop><stop offset="70%" stop-color="#ffffff" stop-opacity="1"></stop></linearGradient></defs><g transform="translate(540, 0)"><path d="M0 270C-39.9 250.7 -79.8 231.4 -122 211.3C-164.2 191.2 -208.8 170.3 -233.8 135C-258.9 99.7 -264.4 49.8 -270 0L0 0Z" fill="#d3daed"></path><path d="M0 180C-26.6 167.1 -53.2 154.3 -81.3 140.9C-109.5 127.5 -139.2 113.6 -155.9 90C-172.6 66.4 -176.3 33.2 -180 0L0 0Z" fill="#7a94c8"></path><path d="M0 90C-13.3 83.6 -26.6 77.1 -40.7 70.4C-54.7 63.7 -69.6 56.8 -77.9 45C-86.3 33.2 -88.1 16.6 -90 0L0 0Z" fill="#4673b6"></path></g><g transform="translate(0, 960)"><path d="M0 -270C34.6 -241.5 69.1 -212.9 112 -194C154.9 -175.1 206.1 -165.7 233.8 -135C261.5 -104.3 265.8 -52.1 270 0L0 0Z" fill="#d3daed"></path><path d="M0 -180C23 -161 46.1 -141.9 74.7 -129.3C103.3 -116.7 137.4 -110.5 155.9 -90C174.4 -69.5 177.2 -34.8 180 0L0 0Z" fill="#7a94c8"></path><path d="M0 -90C11.5 -80.5 23 -71 37.3 -64.7C51.6 -58.4 68.7 -55.2 77.9 -45C87.2 -34.8 88.6 -17.4 90 0L0 0Z" fill="#4673b6"></path></g></svg>