<?xml version="1.0" standalone="no"?>
<svg viewBox="0 0 200 200" xmlns="http://www.w3.org/2000/svg">
  <path fill="#4673B6" d="M49.8,-71.5C63.6,-68.6,73.3,-53.3,74.6,-37.8C75.8,-22.3,68.6,-6.8,63.9,7.5C59.2,21.7,57,34.6,49.7,43.2C42.5,51.8,30.1,56.1,17.5,60.1C4.9,64,-8,67.6,-18.2,63.7C-28.3,59.9,-35.7,48.6,-46.3,38.8C-56.8,29,-70.5,20.5,-76.3,8.4C-82.2,-3.8,-80.1,-19.7,-72.2,-31.2C-64.3,-42.7,-50.4,-49.8,-37.4,-53.1C-24.4,-56.4,-12.2,-56,2.9,-60.5C18,-65,36,-74.5,49.8,-71.5Z" transform="translate(100 100)" />
</svg>
