<?xml version="1.0" standalone="no"?>
<svg xmlns:xlink="http://www.w3.org/1999/xlink" id="wave" style="transform:rotate(0deg); transition: 0.3s" viewBox="0 0 1440 490" version="1.1" xmlns="http://www.w3.org/2000/svg"><defs><linearGradient id="sw-gradient-0" x1="0" x2="0" y1="1" y2="0"><stop stop-color="rgba(0, 0, 0, 0.06666666666666667)" offset="0%"/><stop stop-color="rgba(248, 249, 250, 1)" offset="100%"/></linearGradient></defs><path style="transform:translate(0, 0px); opacity:1" fill="url(#sw-gradient-0)" d="M0,441L120,400.2C240,359,480,278,720,212.3C960,147,1200,98,1440,130.7C1680,163,1920,278,2160,343C2400,408,2640,425,2880,375.7C3120,327,3360,212,3600,138.8C3840,65,4080,33,4320,65.3C4560,98,4800,196,5040,261.3C5280,327,5520,359,5760,326.7C6000,294,6240,196,6480,204.2C6720,212,6960,327,7200,318.5C7440,310,7680,180,7920,147C8160,114,8400,180,8640,196C8880,212,9120,180,9360,147C9600,114,9840,82,10080,114.3C10320,147,10560,245,10800,285.8C11040,327,11280,310,11520,285.8C11760,261,12000,229,12240,179.7C12480,131,12720,65,12960,106.2C13200,147,13440,294,13680,302.2C13920,310,14160,180,14400,147C14640,114,14880,180,15120,236.8C15360,294,15600,343,15840,310.3C16080,278,16320,163,16560,163.3C16800,163,17040,278,17160,334.8L17280,392L17280,490L17160,490C17040,490,16800,490,16560,490C16320,490,16080,490,15840,490C15600,490,15360,490,15120,490C14880,490,14640,490,14400,490C14160,490,13920,490,13680,490C13440,490,13200,490,12960,490C12720,490,12480,490,12240,490C12000,490,11760,490,11520,490C11280,490,11040,490,10800,490C10560,490,10320,490,10080,490C9840,490,9600,490,9360,490C9120,490,8880,490,8640,490C8400,490,8160,490,7920,490C7680,490,7440,490,7200,490C6960,490,6720,490,6480,490C6240,490,6000,490,5760,490C5520,490,5280,490,5040,490C4800,490,4560,490,4320,490C4080,490,3840,490,3600,490C3360,490,3120,490,2880,490C2640,490,2400,490,2160,490C1920,490,1680,490,1440,490C1200,490,960,490,720,490C480,490,240,490,120,490L0,490Z"/><defs><linearGradient id="sw-gradient-1" x1="0" x2="0" y1="1" y2="0"><stop stop-color="rgba(248, 249, 250, 1)" offset="0%"/><stop stop-color="rgba(0, 0, 0, 1)" offset="100%"/></linearGradient></defs><path style="transform:translate(0, 50px); opacity:0.9" fill="url(#sw-gradient-1)" d="M0,392L120,375.7C240,359,480,327,720,326.7C960,327,1200,359,1440,351.2C1680,343,1920,294,2160,228.7C2400,163,2640,82,2880,65.3C3120,49,3360,98,3600,163.3C3840,229,4080,310,4320,351.2C4560,392,4800,392,5040,400.2C5280,408,5520,425,5760,408.3C6000,392,6240,343,6480,343C6720,343,6960,392,7200,343C7440,294,7680,147,7920,89.8C8160,33,8400,65,8640,106.2C8880,147,9120,196,9360,179.7C9600,163,9840,82,10080,98C10320,114,10560,229,10800,228.7C11040,229,11280,114,11520,106.2C11760,98,12000,196,12240,212.3C12480,229,12720,163,12960,187.8C13200,212,13440,327,13680,359.3C13920,392,14160,343,14400,343C14640,343,14880,392,15120,367.5C15360,343,15600,245,15840,187.8C16080,131,16320,114,16560,147C16800,180,17040,261,17160,302.2L17280,343L17280,490L17160,490C17040,490,16800,490,16560,490C16320,490,16080,490,15840,490C15600,490,15360,490,15120,490C14880,490,14640,490,14400,490C14160,490,13920,490,13680,490C13440,490,13200,490,12960,490C12720,490,12480,490,12240,490C12000,490,11760,490,11520,490C11280,490,11040,490,10800,490C10560,490,10320,490,10080,490C9840,490,9600,490,9360,490C9120,490,8880,490,8640,490C8400,490,8160,490,7920,490C7680,490,7440,490,7200,490C6960,490,6720,490,6480,490C6240,490,6000,490,5760,490C5520,490,5280,490,5040,490C4800,490,4560,490,4320,490C4080,490,3840,490,3600,490C3360,490,3120,490,2880,490C2640,490,2400,490,2160,490C1920,490,1680,490,1440,490C1200,490,960,490,720,490C480,490,240,490,120,490L0,490Z"/><defs><linearGradient id="sw-gradient-2" x1="0" x2="0" y1="1" y2="0"><stop stop-color="rgba(248, 249, 250, 1)" offset="0%"/><stop stop-color="rgba(230.276, 230.276, 230.276, 1)" offset="100%"/></linearGradient></defs><path style="transform:translate(0, 100px); opacity:0.8" fill="url(#sw-gradient-2)" d="M0,147L120,179.7C240,212,480,278,720,269.5C960,261,1200,180,1440,155.2C1680,131,1920,163,2160,220.5C2400,278,2640,359,2880,351.2C3120,343,3360,245,3600,245C3840,245,4080,343,4320,334.8C4560,327,4800,212,5040,212.3C5280,212,5520,327,5760,383.8C6000,441,6240,441,6480,400.2C6720,359,6960,278,7200,228.7C7440,180,7680,163,7920,130.7C8160,98,8400,49,8640,89.8C8880,131,9120,261,9360,302.2C9600,343,9840,294,10080,269.5C10320,245,10560,245,10800,269.5C11040,294,11280,343,11520,359.3C11760,376,12000,359,12240,318.5C12480,278,12720,212,12960,196C13200,180,13440,212,13680,228.7C13920,245,14160,245,14400,245C14640,245,14880,245,15120,212.3C15360,180,15600,114,15840,81.7C16080,49,16320,49,16560,81.7C16800,114,17040,180,17160,212.3L17280,245L17280,490L17160,490C17040,490,16800,490,16560,490C16320,490,16080,490,15840,490C15600,490,15360,490,15120,490C14880,490,14640,490,14400,490C14160,490,13920,490,13680,490C13440,490,13200,490,12960,490C12720,490,12480,490,12240,490C12000,490,11760,490,11520,490C11280,490,11040,490,10800,490C10560,490,10320,490,10080,490C9840,490,9600,490,9360,490C9120,490,8880,490,8640,490C8400,490,8160,490,7920,490C7680,490,7440,490,7200,490C6960,490,6720,490,6480,490C6240,490,6000,490,5760,490C5520,490,5280,490,5040,490C4800,490,4560,490,4320,490C4080,490,3840,490,3600,490C3360,490,3120,490,2880,490C2640,490,2400,490,2160,490C1920,490,1680,490,1440,490C1200,490,960,490,720,490C480,490,240,490,120,490L0,490Z"/></svg>