<?xml version="1.0" standalone="no"?>
<svg viewBox="0 0 200 200" xmlns="http://www.w3.org/2000/svg">
  <path fill="#F5BE1D" d="M19.1,-35.4C28.3,-23.9,41.8,-24.5,48.8,-19.3C55.7,-14.1,56.3,-2.9,56.2,9.1C56.1,21.2,55.3,34.2,49.5,45.4C43.7,56.7,33,66.2,20.4,70.2C7.8,74.2,-6.6,72.8,-15.6,64.8C-24.6,56.7,-28.2,42.1,-36.5,32C-44.9,21.8,-58,16,-65.7,5.5C-73.3,-5,-75.5,-20.2,-72.2,-35.3C-68.9,-50.3,-60.2,-65.2,-47.2,-75C-34.3,-84.8,-17.1,-89.6,-6.1,-80.2C5,-70.7,9.9,-47,19.1,-35.4Z" transform="translate(100 100)" />
</svg>
